<svg preserveAspectRatio="none" overflow="visible" style="display: block;" width="20" height="20" viewBox="0 0 20 20" fill="none" xmlns="http://www.w3.org/2000/svg">
<g id="Union">
<path d="M1 5.85742C1.55219 5.85742 1.99985 5.40958 2 4.85742V4.2002C2 3.62364 2.00127 3.25111 2.02442 2.96777C2.04661 2.69619 2.08419 2.59534 2.10938 2.5459C2.20522 2.35793 2.35793 2.20522 2.5459 2.10938C2.59534 2.08419 2.69619 2.04661 2.96777 2.02442C3.25111 2.00127 3.62364 2 4.2002 2H4.85742C5.40958 1.99985 5.85742 1.55219 5.85742 1C5.85742 0.44781 5.40958 0.00014988 4.85742 1.51904e-06H4.16113C3.63414 -1.55229e-05 3.17917 -0.00032167 2.80469 0.030275C2.40943 0.0625861 2.01599 0.134399 1.6377 0.32715C1.07347 0.614724 0.614724 1.07347 0.32715 1.6377C0.134398 2.01599 0.062586 2.40943 0.030275 2.80469C-0.0003225 3.17918 -1.55245e-05 3.63412 1.51826e-06 4.16113V4.85742C0.000151471 5.40958 0.447811 5.85742 1 5.85742Z" fill="black"/>
<path d="M19 5.85742C19.5522 5.85742 19.9999 5.40958 20 4.85742V4.16113C20 3.63412 20.0003 3.17918 19.9697 2.80469C19.9374 2.40943 19.8656 2.01599 19.6729 1.6377C19.3853 1.07347 18.9265 0.614724 18.3623 0.32715C17.984 0.134397 17.5906 0.0625857 17.1953 0.030275C16.8208 -0.000322718 16.3659 -1.5524e-05 15.8389 1.51904e-06H15.1426C14.5904 0.000154354 14.1426 0.447812 14.1426 1C14.1426 1.55219 14.5904 1.99985 15.1426 2H15.7998C16.3764 2 16.7489 2.00127 17.0322 2.02442C17.3038 2.04661 17.4047 2.08419 17.4541 2.10938C17.6421 2.20522 17.7948 2.35793 17.8906 2.5459C17.9158 2.59534 17.9544 2.69613 17.9766 2.96777C17.9997 3.25111 18 3.62364 18 4.2002V4.85742C18.0002 5.40958 18.4478 5.85742 19 5.85742Z" fill="black"/>
<path fill-rule="evenodd" clip-rule="evenodd" d="M6.93164 9.5C7.18401 9.50003 7.43052 9.50041 7.63867 9.4834C7.86718 9.4647 8.13694 9.42044 8.40821 9.28223C8.78446 9.0905 9.09049 8.78446 9.28223 8.40821C9.42044 8.13694 9.4647 7.86718 9.4834 7.63867C9.50041 7.43052 9.50003 7.18401 9.5 6.93164V6.06836C9.50003 5.81599 9.50041 5.56948 9.4834 5.36133C9.4647 5.13282 9.42044 4.86306 9.28223 4.5918C9.09049 4.21555 8.78446 3.90951 8.40821 3.71777C8.13694 3.57956 7.86718 3.5353 7.63867 3.5166C7.43052 3.4996 7.18402 3.49997 6.93164 3.5H6.06836C5.81599 3.49997 5.56948 3.4996 5.36133 3.5166C5.13282 3.5353 4.86306 3.57956 4.5918 3.71777C4.21555 3.90951 3.90951 4.21555 3.71777 4.5918C3.57956 4.86306 3.5353 5.13282 3.5166 5.36133C3.4996 5.56948 3.49997 5.81599 3.5 6.06836V6.93164C3.49997 7.18402 3.4996 7.43052 3.5166 7.63867C3.5353 7.86718 3.57956 8.13694 3.71777 8.40821C3.90951 8.78446 4.21555 9.09049 4.5918 9.28223C4.86306 9.42044 5.13282 9.4647 5.36133 9.4834C5.56948 9.50041 5.81599 9.50003 6.06836 9.5H6.93164ZM6.09961 7.5C5.80333 7.5 5.64095 7.49878 5.52442 7.48926L5.51172 7.48828L5.51074 7.47559C5.50122 7.35905 5.5 7.19667 5.5 6.90039V6.09961C5.5 5.80333 5.50122 5.64095 5.51074 5.52442L5.51172 5.51172L5.52442 5.51074C5.64095 5.50122 5.80333 5.5 6.09961 5.5H6.90039C7.19667 5.5 7.35905 5.50122 7.47559 5.51074L7.48828 5.51172L7.48926 5.52442C7.49878 5.64095 7.5 5.80333 7.5 6.09961V6.90039C7.5 7.19667 7.49878 7.35905 7.48926 7.47559L7.48828 7.48828L7.47559 7.48926C7.35905 7.49878 7.19667 7.5 6.90039 7.5H6.09961Z" fill="black"/>
<path fill-rule="evenodd" clip-rule="evenodd" d="M13.9316 9.5C14.184 9.50003 14.4305 9.50041 14.6387 9.4834C14.8672 9.4647 15.1369 9.42044 15.4082 9.28223C15.7845 9.0905 16.0905 8.78446 16.2822 8.40821C16.4204 8.13694 16.4647 7.86718 16.4834 7.63867C16.5004 7.43055 16.5 7.18397 16.5 6.93164V6.06836C16.5 5.81603 16.5004 5.56945 16.4834 5.36133C16.4647 5.13282 16.4204 4.86306 16.2822 4.5918C16.0905 4.21555 15.7845 3.90951 15.4082 3.71777C15.1369 3.57956 14.8672 3.5353 14.6387 3.5166C14.4305 3.4996 14.184 3.49997 13.9316 3.5H13.0684C12.816 3.49997 12.5695 3.4996 12.3613 3.5166C12.1328 3.5353 11.8631 3.57956 11.5918 3.71777C11.2155 3.90951 10.9095 4.21555 10.7178 4.5918C10.5796 4.86306 10.5353 5.13282 10.5166 5.36133C10.4996 5.56948 10.5 5.81599 10.5 6.06836V6.93164C10.5 7.18401 10.4996 7.43052 10.5166 7.63867C10.5353 7.86718 10.5796 8.13694 10.7178 8.40821C10.9095 8.78446 11.2155 9.09049 11.5918 9.28223C11.8631 9.42044 12.1328 9.4647 12.3613 9.4834C12.5695 9.50041 12.816 9.50003 13.0684 9.5H13.9316ZM13.0996 7.5C12.8033 7.5 12.6409 7.49878 12.5244 7.48926L12.5117 7.48828L12.5107 7.47559C12.5012 7.35905 12.5 7.19667 12.5 6.90039V6.09961C12.5 5.80333 12.5012 5.64095 12.5107 5.52442L12.5117 5.51172L12.5244 5.51074C12.6409 5.50122 12.8033 5.5 13.0996 5.5H13.9004C14.1967 5.5 14.3591 5.50122 14.4756 5.51074L14.4883 5.51172L14.4893 5.52442C14.4988 5.64095 14.5 5.80333 14.5 6.09961V6.90039C14.5 7.19667 14.4988 7.35905 14.4893 7.47559L14.4883 7.48828L14.4756 7.48926C14.3591 7.49878 14.1967 7.5 13.9004 7.5H13.0996Z" fill="black"/>
<path fill-rule="evenodd" clip-rule="evenodd" d="M6.93164 16.5C7.18395 16.5 7.43057 16.5004 7.63867 16.4834C7.86718 16.4647 8.13694 16.4204 8.40821 16.2822C8.78446 16.0905 9.09049 15.7845 9.28223 15.4082C9.42044 15.1369 9.4647 14.8672 9.4834 14.6387C9.50041 14.4305 9.50003 14.184 9.5 13.9316V13.0684C9.50003 12.816 9.50041 12.5695 9.4834 12.3613C9.4647 12.1328 9.42044 11.8631 9.28223 11.5918C9.09049 11.2155 8.78446 10.9095 8.40821 10.7178C8.13694 10.5796 7.86718 10.5353 7.63867 10.5166C7.43052 10.4996 7.18401 10.5 6.93164 10.5H6.06836C5.81599 10.5 5.56948 10.4996 5.36133 10.5166C5.13282 10.5353 4.86306 10.5796 4.5918 10.7178C4.21555 10.9095 3.90951 11.2155 3.71777 11.5918C3.57956 11.8631 3.5353 12.1328 3.5166 12.3613C3.4996 12.5695 3.49997 12.816 3.5 13.0684V13.9316C3.49997 14.184 3.4996 14.4305 3.5166 14.6387C3.5353 14.8672 3.57956 15.1369 3.71777 15.4082C3.90951 15.7845 4.21555 16.0905 4.5918 16.2822C4.86306 16.4204 5.13282 16.4647 5.36133 16.4834C5.56943 16.5004 5.81606 16.5 6.06836 16.5H6.93164ZM6.09961 14.5C5.80333 14.5 5.64095 14.4988 5.52442 14.4893L5.51172 14.4883L5.51074 14.4756C5.50122 14.3591 5.5 14.1967 5.5 13.9004V13.0996C5.5 12.8033 5.50122 12.641 5.51074 12.5244L5.51172 12.5117L5.52442 12.5107C5.64095 12.5012 5.80333 12.5 6.09961 12.5H6.90039C7.19667 12.5 7.35905 12.5012 7.47559 12.5107L7.48828 12.5117L7.48926 12.5244C7.49878 12.641 7.5 12.8033 7.5 13.0996V13.9004C7.5 14.1967 7.49878 14.3591 7.48926 14.4756L7.48828 14.4883L7.47559 14.4893C7.35905 14.4988 7.19667 14.5 6.90039 14.5H6.09961Z" fill="black"/>
<path d="M12.2002 13C12.4799 13 12.6197 12.9997 12.7266 12.9453C12.8206 12.8974 12.8974 12.8206 12.9453 12.7266C12.9997 12.6197 13 12.4799 13 12.2002V11.5498C13 11.2701 12.9997 11.1303 12.9453 11.0234C12.8974 10.9294 12.8206 10.8526 12.7266 10.8047C12.6197 10.7503 12.4799 10.75 12.2002 10.75H11.5498C11.2701 10.75 11.1303 10.7503 11.0234 10.8047C10.9294 10.8526 10.8526 10.9294 10.8047 11.0234C10.7503 11.1303 10.75 11.2701 10.75 11.5498V12.2002C10.75 12.4799 10.7503 12.6197 10.8047 12.7266C10.8526 12.8206 10.9294 12.8974 11.0234 12.9453C11.1303 12.9997 11.2701 13 11.5498 13H12.2002Z" fill="black"/>
<path d="M15.4502 13C15.7299 13 15.8697 12.9997 15.9766 12.9453C16.0706 12.8974 16.1474 12.8206 16.1953 12.7266C16.2497 12.6197 16.25 12.4799 16.25 12.2002V11.5498C16.25 11.2701 16.2497 11.1303 16.1953 11.0234C16.1474 10.9294 16.0706 10.8526 15.9766 10.8047C15.8697 10.7503 15.7299 10.75 15.4502 10.75H14.7998C14.5201 10.75 14.3803 10.7503 14.2734 10.8047C14.1794 10.8526 14.1026 10.9294 14.0547 11.0234C14.0003 11.1303 14 11.2701 14 11.5498V12.2002C14 12.4799 14.0003 12.6197 14.0547 12.7266C14.1026 12.8206 14.1794 12.8974 14.2734 12.9453C14.3803 12.9997 14.5201 13 14.7998 13H15.4502Z" fill="black"/>
<path d="M12.2002 16.25C12.4799 16.25 12.6197 16.2497 12.7266 16.1953C12.8206 16.1474 12.8974 16.0706 12.9453 15.9766C12.9997 15.8697 13 15.7299 13 15.4502V14.7998C13 14.5201 12.9997 14.3803 12.9453 14.2734C12.8974 14.1794 12.8206 14.1026 12.7266 14.0547C12.6197 14.0003 12.4799 14 12.2002 14H11.5498C11.2701 14 11.1303 14.0003 11.0234 14.0547C10.9294 14.1026 10.8526 14.1794 10.8047 14.2734C10.7503 14.3803 10.75 14.5201 10.75 14.7998V15.4502C10.75 15.7299 10.7503 15.8697 10.8047 15.9766C10.8526 16.0706 10.9294 16.1474 11.0234 16.1953C11.1303 16.2497 11.2701 16.25 11.5498 16.25H12.2002Z" fill="black"/>
<path d="M15.4502 16.25C15.7299 16.25 15.8697 16.2497 15.9766 16.1953C16.0706 16.1474 16.1474 16.0706 16.1953 15.9766C16.2497 15.8697 16.25 15.7299 16.25 15.4502V14.7998C16.25 14.5201 16.2497 14.3803 16.1953 14.2734C16.1474 14.1794 16.0706 14.1026 15.9766 14.0547C15.8697 14.0003 15.7299 14 15.4502 14H14.7998C14.5201 14 14.3803 14.0003 14.2734 14.0547C14.1794 14.1026 14.1026 14.1794 14.0547 14.2734C14.0003 14.3803 14 14.5201 14 14.7998V15.4502C14 15.7299 14.0003 15.8697 14.0547 15.9766C14.1026 16.0706 14.1794 16.1474 14.2734 16.1953C14.3803 16.2497 14.5201 16.25 14.7998 16.25H15.4502Z" fill="black"/>
<path d="M4.85742 20C5.40958 19.9999 5.85742 19.5522 5.85742 19C5.85742 18.4478 5.40958 18.0002 4.85742 18H4.2002C3.62364 18 3.25111 17.9987 2.96777 17.9756C2.69619 17.9534 2.59534 17.9158 2.5459 17.8906C2.35793 17.7948 2.20522 17.6421 2.10938 17.4541C2.08419 17.4047 2.04661 17.3038 2.02442 17.0322C2.00127 16.7489 2 16.3764 2 15.7998V15.1426C1.99985 14.5904 1.55219 14.1426 1 14.1426C0.447812 14.1426 0.000153531 14.5904 1.51826e-06 15.1426V15.8389C-1.55238e-05 16.3659 -0.000321802 16.8208 0.030275 17.1953C0.0625859 17.5906 0.134398 17.984 0.32715 18.3623C0.614724 18.9265 1.07347 19.3853 1.6377 19.6729C2.01599 19.8656 2.40943 19.9374 2.80469 19.9697C3.17918 20.0003 3.63412 20 4.16113 20H4.85742Z" fill="black"/>
<path d="M15.8389 20C16.3659 20 16.8208 20.0003 17.1953 19.9697C17.5906 19.9374 17.984 19.8656 18.3623 19.6729C18.9265 19.3853 19.3853 18.9265 19.6729 18.3623C19.8656 17.984 19.9374 17.5906 19.9697 17.1953C20.0003 16.8208 20 16.3659 20 15.8389V15.1426C19.9998 14.5904 19.5522 14.1426 19 14.1426C18.4478 14.1426 18.0002 14.5904 18 15.1426V15.7998C18 16.3764 17.9997 16.7489 17.9766 17.0322C17.9544 17.3039 17.9158 17.4047 17.8906 17.4541C17.7948 17.6421 17.6421 17.7948 17.4541 17.8906C17.4047 17.9158 17.3038 17.9534 17.0322 17.9756C16.7489 17.9987 16.3764 18 15.7998 18H15.1426C14.5904 18.0002 14.1426 18.4478 14.1426 19C14.1426 19.5522 14.5904 19.9998 15.1426 20H15.8389Z" fill="black"/>
</g>
</svg>
